<svg xmlns="http://www.w3.org/2000/svg" xmlns:xlink="http://www.w3.org/1999/xlink" version="1.1" id="Layer_1" x="0px" y="0px" style="enable-background:new 0 0 512 512;" xml:space="preserve" viewBox="0.1 176.05 512 159.71">
<style type="text/css">
	.st0{fill:#FF5A5F;}
</style>
<g id="XMLID_1_">
	<path id="XMLID_30_" class="st0" d="M269.86,216.32c0,5.75-4.63,10.39-10.39,10.39s-10.39-4.63-10.39-10.39   c0-5.75,4.49-10.39,10.39-10.39C265.36,206.08,269.86,210.71,269.86,216.32z M226.91,237.23c0,0.98,0,2.53,0,2.53   s-4.91-6.46-15.58-6.46c-17.4,0-31.02,13.33-31.02,31.72c0,18.25,13.47,31.72,31.02,31.72c10.67,0,15.58-6.6,15.58-6.6v2.67   c0,1.26,0.98,2.25,2.25,2.25h12.91v-60.07c0,0-11.79,0-12.91,0C227.89,234.99,226.91,236.11,226.91,237.23z M226.91,275.83   c-2.39,3.51-7.16,6.6-12.91,6.6c-10.25,0-18.11-6.46-18.11-17.26c0-10.95,7.86-17.26,18.11-17.26c5.61,0,10.67,3.23,12.91,6.6   V275.83z M251.75,234.99h15.3v60.21h-15.3V234.99z M481.22,233.44c-10.53,0-15.58,6.46-15.58,6.46v-33.82h-15.3v89.12   c0,0,11.79,0,12.91,0c1.26,0,2.25-1.12,2.25-2.25v-2.67c0,0,4.91,6.6,15.58,6.6c17.4,0,31.02-13.47,31.02-31.72   C512.1,246.78,498.48,233.44,481.22,233.44z M478.69,282.15c-5.89,0-10.53-3.09-12.91-6.6v-21.47c2.39-3.23,7.58-6.6,12.91-6.6   c10.25,0,18.11,6.46,18.11,17.26C496.8,275.83,488.94,282.15,478.69,282.15z M442.34,259.55v35.79h-15.3v-34.1   c0-9.96-3.23-13.89-11.79-13.89c-4.63,0-9.4,2.39-12.49,5.89v41.96h-15.3v-60.21h12.21c1.26,0,2.25,1.12,2.25,2.25v2.53   c4.49-4.63,10.39-6.46,16.28-6.46c6.74,0,12.35,1.96,16.84,5.75C440.24,243.69,442.34,249.44,442.34,259.55z M349.99,233.44   c-10.53,0-15.58,6.46-15.58,6.46v-33.82h-15.3v89.12c0,0,11.79,0,12.91,0c1.26,0,2.25-1.12,2.25-2.25v-2.67c0,0,4.91,6.6,15.58,6.6   c17.4,0,31.02-13.47,31.02-31.72C381.01,246.78,367.4,233.44,349.99,233.44z M347.47,282.15c-5.89,0-10.53-3.09-12.91-6.6v-21.47   c2.39-3.23,7.58-6.6,12.91-6.6c10.25,0,18.11,6.46,18.11,17.26C365.57,275.83,357.71,282.15,347.47,282.15z M305.78,233.44   c4.63,0,7.02,0.84,7.02,0.84v14.18c0,0-12.77-4.35-20.77,4.77v42.1h-15.3v-60.35c0,0,11.79,0,12.91,0c1.26,0,2.25,1.12,2.25,2.25   v2.53C294.84,236.39,301.01,233.44,305.78,233.44z M146.21,289.72c-0.84-1.96-1.54-4.07-2.39-5.75c-1.26-2.95-2.53-5.61-3.65-8.14   l-0.14-0.14c-11.09-24-22.88-48.28-35.37-72.28l-0.42-0.98c-1.26-2.39-2.53-4.91-3.79-7.58c-1.54-2.95-3.23-5.89-5.75-8.84   c-5.05-6.46-12.49-9.96-20.35-9.96c-8,0-15.16,3.51-20.49,9.54c-2.39,2.95-4.21,5.89-5.75,8.84c-1.26,2.53-2.53,5.05-3.79,7.58   l-0.42,0.98c-12.35,24-24.28,48.28-35.37,72.28l-0.14,0.28c-1.12,2.53-2.39,5.33-3.65,8.14c-0.84,1.82-1.54,3.65-2.39,5.75   c-2.11,5.89-2.67,11.51-1.96,17.26c1.82,12.07,9.82,22.03,20.77,26.53c4.21,1.82,8.42,2.53,12.91,2.53c1.26,0,2.95-0.14,4.21-0.28   c5.33-0.7,10.67-2.39,16-5.47c6.6-3.65,12.77-8.98,19.79-16.7c7.02,7.72,13.47,12.91,19.79,16.7c5.33,3.09,10.67,4.77,16,5.47   c1.26,0.14,2.95,0.28,4.21,0.28c4.49,0,8.98-0.84,12.91-2.53c11.23-4.49,19.09-14.74,20.77-26.53   C149.01,301.23,148.31,295.62,146.21,289.72z M74.07,298c-8.7-10.95-14.18-21.19-16.14-29.75c-0.84-3.65-0.98-6.88-0.42-9.82   c0.28-2.53,1.26-4.77,2.53-6.74c3.09-4.35,8.14-7.02,14.03-7.02c5.89,0,11.23,2.53,14.03,7.02c1.26,1.96,2.25,4.21,2.53,6.74   c0.42,2.95,0.28,6.18-0.42,9.82C88.38,276.81,82.77,287.06,74.07,298z M137.93,305.58c-1.12,8.28-6.74,15.58-14.6,18.67   c-3.79,1.54-8,2.11-12.21,1.54c-4.07-0.42-8-1.82-12.21-4.21c-5.75-3.23-11.51-8.14-18.25-15.58   c10.53-12.91,16.98-24.84,19.37-35.37c1.12-4.91,1.26-9.4,0.84-13.61c-0.7-4.07-2.11-7.72-4.35-10.95   c-4.91-7.16-13.33-11.37-22.6-11.37s-17.54,4.35-22.6,11.37c-2.25,3.23-3.65,6.88-4.35,10.95c-0.7,4.21-0.42,8.84,0.84,13.61   c2.39,10.53,8.98,22.6,19.37,35.51c-6.6,7.3-12.49,12.35-18.25,15.58c-4.21,2.39-8.14,3.65-12.21,4.21   c-4.35,0.42-8.42-0.14-12.21-1.54c-7.86-3.23-13.47-10.39-14.6-18.67c-0.42-4.07-0.14-8,1.4-12.49c0.42-1.54,1.26-3.23,2.11-5.05   c1.12-2.53,2.39-5.33,3.65-8l0.14-0.28c11.09-23.86,22.88-48.14,35.23-71.86l0.42-0.98c1.26-2.39,2.53-4.91,3.79-7.3   c1.26-2.53,2.67-4.91,4.49-7.02c3.37-3.79,7.86-5.89,12.77-5.89s9.4,2.11,12.77,5.89c1.82,2.11,3.23,4.49,4.49,7.02   c1.26,2.39,2.53,4.91,3.79,7.3l0.42,0.98c12.21,23.86,24,48.14,35.09,72v0.14c1.26,2.53,2.39,5.47,3.65,8   c0.84,1.96,1.54,3.51,2.11,5.05C138.07,297.44,138.63,301.37,137.93,305.58z"/>
</g>
</svg>