<svg xmlns="http://www.w3.org/2000/svg" xmlns:xlink="http://www.w3.org/1999/xlink" version="1.1" id="Layer_1" x="0px" y="0px" style="enable-background:new 0 0 512 512;" xml:space="preserve" viewBox="0 206.46 512.01 99.08">
<style type="text/css">
	.st0{fill:#1877F2;}
</style>
<g>
	<path class="st0" d="M32.44,304.02H13.15v-48.1H0v-15.65h13.14v-11.14c0-13.2,5.81-22.67,25.05-22.67c4.07,0,10.46,0.81,10.46,0.81   v14.55h-6.72c-6.83,0-9.51,2.08-9.51,7.83v10.62H48.4l-1.42,15.65H32.44V304.02z M76.7,239.02c-0.28,0-0.58,0.01-0.86,0.01   c-17.88,0-26.08,13.45-26.08,32.56c0,24.06,10.62,33.69,26.22,33.69c8.92,0,14.78-3.76,18.35-10.76v9.51h18.35v-63.75H94.34v9.8   C91.43,243.77,85.4,239.1,76.7,239.02z M81.38,254.08c7.52,0,12.02,5.25,12.02,14.15l0.01,9.1c0,6-3.73,13.03-12.04,13.03   c-12.78,0-12.44-13.8-12.44-18.4C68.93,256.51,75.74,254.08,81.38,254.08L81.38,254.08z M120.1,272.16   c0-7.74-0.36-33.09,32.65-33.09c13.26,0,18.8,4.22,18.8,4.22l-4.45,13.8c0,0-5.53-3.04-12.74-3.04c-9.23,0-15.11,5.34-15.11,14.76   l0.01,6.75c0,9.05,5.68,15.08,15.12,15.08c6.56,0,12.61-3.07,12.61-3.07l4.43,13.51c0,0-5.06,4.24-18.59,4.24   C121.39,305.29,120.1,282.56,120.1,272.16L120.1,272.16z M279.14,239.03c17.88,0,26.2,13.45,26.2,32.56   c0,24.06-10.62,33.69-26.22,33.69c-8.92,0-15.51-3.76-19.08-10.76v9.51l-18.12-0.01v-95.62l19.23-1.68v42.5   C263.94,241.78,273.05,239.03,279.14,239.03L279.14,239.03z M273.74,254.08c-7.52,0-12.58,5.25-12.58,14.15l-0.01,9.1   c-0.01,6,3.51,13.03,12.6,13.03c12.78,0,12.44-13.8,12.44-18.4C286.18,256.51,279.38,254.08,273.74,254.08L273.74,254.08z    M204.93,239.09c-20.28,0-31,11.07-31,30.72v3.65c0,25.52,15.04,32.08,32.98,32.08c17.44,0,25.32-4.88,25.32-4.88l-3.6-12.99   c0,0-9.29,3.96-19.41,3.96c-10.51,0-15.02-2.68-16.19-12.78h40.73v-10.42C233.77,247.12,221.73,239.09,204.93,239.09L204.93,239.09   z M205.42,252.09c7.03,0,11.57,4.31,11.32,14.29h-23.68C193.47,255.88,198.38,252.09,205.42,252.09L205.42,252.09z M343.69,239   c-20.83,0-31.8,11.74-31.8,32.78c0,28.87,18.91,33.52,31.84,33.52c18.94,0,31.53-10.2,31.53-33.26   C375.26,248.05,361.1,239,343.69,239L343.69,239z M343.43,254.14c9.16,0,12.79,6.86,12.79,14.66v6.7c0,9.45-5.08,14.92-12.82,14.92   c-7.25,0-12.34-5.12-12.34-14.92v-6.7C331.06,258.33,337.12,254.14,343.43,254.14z M413.58,239c-20.83,0-31.8,11.74-31.8,32.78   c0,28.87,18.91,33.52,31.84,33.52c18.94,0,31.53-10.2,31.53-33.26C445.14,248.05,430.98,239,413.58,239L413.58,239z M413.32,254.14   c9.16,0,12.79,6.86,12.79,14.66v6.7c0,9.45-5.08,14.92-12.82,14.92c-7.25,0-12.34-5.12-12.34-14.92v-6.7   C400.95,258.33,407.01,254.14,413.32,254.14z M452.42,304.02v-95.62l19.29-1.68v64.09l19.15-30.54h20.38l-19.96,31.63l20.73,32.12   h-20.44l-19.86-31.18v31.18H452.42z"/>
</g>
</svg>