<?xml version="1.0" encoding="utf-8"?>
<!-- Generator: Adobe Illustrator 26.5.0, SVG Export Plug-In . SVG Version: 6.00 Build 0)  -->
<svg version="1.1" id="Layer_1" xmlns="http://www.w3.org/2000/svg" xmlns:xlink="http://www.w3.org/1999/xlink" x="0px" y="0px"
	 viewBox="0 0 512 512" style="enable-background:new 0 0 512 512;" xml:space="preserve">
<style type="text/css">
	.st0{fill:#706D6E;}
	.st1{fill:#F1511B;}
	.st2{fill:#80CC28;}
	.st3{fill:#00ADEF;}
	.st4{fill:#FBBC09;}
</style>
<g id="XMLID_1_">
	<path id="path5056" class="st0" d="M512,250.73v-9.03h-11.18v-14.01l-0.4,0.13l-10.51,3.23h-0.27v10.64h-16.57v-5.93
		c0-2.69,0.67-4.85,1.89-6.2c1.21-1.35,2.96-2.16,5.12-2.16c1.62,0,3.23,0.4,4.85,1.08l0.4,0.13v-9.43l-0.13-0.13
		c-1.48-0.54-3.64-0.81-6.2-0.81c-3.23,0-6.2,0.67-8.76,2.16c-2.56,1.35-4.58,3.37-6.06,5.93c-1.48,2.56-2.16,5.52-2.16,8.76v6.47
		h-7.81v9.03h7.81v38h11.18v-38h16.57v24.25c0,9.97,4.72,14.96,13.88,14.96c1.48,0,3.1-0.13,4.72-0.54c1.62-0.4,2.83-0.67,3.5-1.08
		l0.13-0.13v-9.03l-0.4,0.27c-0.67,0.4-1.35,0.67-2.29,0.94c-0.94,0.27-1.62,0.4-2.16,0.4c-2.16,0-3.77-0.54-4.72-1.75
		s-1.48-3.23-1.48-6.06v-22.1L512,250.73L512,250.73z M429.27,280.64c-4.04,0-7.28-1.35-9.57-4.04c-2.29-2.69-3.37-6.47-3.37-11.32
		c0-4.99,1.21-8.89,3.37-11.59c2.29-2.69,5.39-4.04,9.43-4.04c3.91,0,7.01,1.35,9.16,3.91c2.16,2.56,3.37,6.47,3.37,11.45
		c0,5.12-1.08,9.03-3.1,11.59C436.41,279.43,433.31,280.64,429.27,280.64 M429.68,240.62c-7.68,0-13.88,2.29-18.32,6.74
		c-4.45,4.45-6.6,10.64-6.6,18.46c0,7.41,2.16,13.2,6.47,17.52c4.31,4.31,10.11,6.47,17.25,6.47c7.55,0,13.47-2.29,17.92-6.87
		c4.45-4.58,6.6-10.64,6.6-18.19c0-7.41-2.02-13.47-6.2-17.65C442.75,242.78,437.09,240.62,429.68,240.62 M386.83,240.62
		c-5.25,0-9.57,1.35-12.93,4.04c-3.37,2.69-4.99,6.2-4.99,10.37c0,2.16,0.4,4.18,1.08,5.79c0.67,1.62,1.89,3.1,3.37,4.31
		c1.48,1.21,3.77,2.56,6.74,3.77c2.56,1.08,4.45,1.89,5.66,2.69c1.21,0.67,2.02,1.35,2.43,2.02c0.4,0.67,0.67,1.62,0.67,2.69
		c0,3.1-2.43,4.72-7.28,4.72c-1.75,0-3.91-0.4-6.06-1.08c-2.29-0.81-4.31-1.75-6.2-3.23l-0.4-0.27v10.78l0.13,0.13
		c1.62,0.67,3.64,1.35,5.93,1.89s4.45,0.67,6.33,0.67c5.66,0,10.37-1.35,13.61-4.04c3.37-2.69,5.12-6.33,5.12-10.64
		c0-3.1-0.94-5.93-2.69-8.08c-1.75-2.16-4.99-4.18-9.3-5.93c-3.5-1.35-5.66-2.56-6.6-3.5c-0.94-0.81-1.35-2.02-1.35-3.64
		c0-1.35,0.54-2.43,1.75-3.37c1.21-0.94,2.69-1.35,4.72-1.35c1.89,0,3.77,0.27,5.66,0.81c1.89,0.54,3.5,1.35,4.99,2.29l0.4,0.27
		v-10.24l-0.13-0.13c-1.35-0.54-2.96-1.08-4.99-1.35C390.33,240.89,388.45,240.62,386.83,240.62 M339.67,280.64
		c-4.04,0-7.28-1.35-9.57-4.04c-2.29-2.69-3.37-6.47-3.37-11.32c0-4.99,1.21-8.89,3.37-11.59c2.29-2.69,5.39-4.04,9.43-4.04
		c3.91,0,7.01,1.35,9.16,3.91c2.16,2.56,3.37,6.47,3.37,11.45c0,5.12-1.08,9.03-3.1,11.59
		C346.95,279.43,343.85,280.64,339.67,280.64 M340.21,240.62c-7.68,0-13.88,2.29-18.32,6.74s-6.6,10.64-6.6,18.46
		c0,7.41,2.16,13.2,6.47,17.52c4.31,4.31,10.11,6.47,17.25,6.47c7.55,0,13.47-2.29,17.92-6.87c4.45-4.58,6.6-10.64,6.6-18.19
		c0-7.41-2.02-13.47-6.2-17.65C353.28,242.78,347.49,240.62,340.21,240.62 M298.31,249.92v-8.08h-11.05v46.89h11.05v-23.98
		c0-4.04,0.94-7.41,2.69-9.97s4.18-3.77,7.14-3.77c0.94,0,2.16,0.13,3.37,0.54c1.21,0.27,2.02,0.67,2.56,1.08l0.4,0.27V241.7
		l-0.13-0.13c-1.08-0.4-2.43-0.67-4.31-0.67c-2.83,0-5.25,0.94-7.41,2.69C300.87,245.2,299.52,247.22,298.31,249.92L298.31,249.92z
		 M267.59,240.62c-5.12,0-9.57,1.08-13.47,3.23c-3.91,2.16-6.87,5.25-8.89,9.16c-2.02,3.91-3.1,8.49-3.1,13.47
		c0,4.45,0.94,8.49,2.96,12.13c2.02,3.64,4.72,6.47,8.22,8.35c3.5,1.89,7.55,2.96,12.13,2.96c5.25,0,9.7-1.08,13.34-3.1l0.13-0.13
		V276.6l-0.4,0.4c-1.62,1.21-3.5,2.16-5.39,2.83c-1.89,0.67-3.77,1.08-5.25,1.08c-4.31,0-7.81-1.35-10.37-4.04
		c-2.56-2.69-3.77-6.47-3.77-11.18s1.35-8.62,4.04-11.45c2.69-2.83,6.06-4.31,10.37-4.31c3.64,0,7.14,1.21,10.51,3.64l0.4,0.27
		v-10.64l-0.13-0.13c-1.21-0.67-2.96-1.35-5.12-1.75C271.63,240.89,269.47,240.62,267.59,240.62 M234.58,241.84h-11.05v46.89h11.05
		V241.84z M229.19,221.76c-1.75,0-3.37,0.67-4.72,1.89c-1.35,1.21-2.02,2.83-2.02,4.58s0.67,3.37,1.89,4.58
		c1.35,1.21,2.83,1.75,4.72,1.75s3.5-0.54,4.72-1.75c1.35-1.21,2.02-2.69,2.02-4.58c0-1.75-0.67-3.23-1.89-4.58
		C232.69,222.43,231.07,221.76,229.19,221.76 M201.7,238.33v50.39h11.32v-65.48h-15.63l-19.81,48.64l-19.27-48.64h-16.17v65.48
		h10.64v-50.39h0.4l20.35,50.39h7.95l19.94-50.39H201.7L201.7,238.33z"/>
	<path id="path5058" class="st1" d="M51.87,253.29H0v-51.87h51.87V253.29z"/>
	<path id="path5060" class="st2" d="M109.27,253.29H57.4v-51.87h51.87V253.29z"/>
	<path id="path5062" class="st3" d="M51.87,310.69H0v-52.01h51.87V310.69z"/>
	<path id="path5064" class="st4" d="M109.27,310.69H57.4v-52.01h51.87V310.69z"/>
</g>
</svg>
