<svg xmlns="http://www.w3.org/2000/svg" xmlns:xlink="http://www.w3.org/1999/xlink" version="1.1" id="Layer_1" x="0px" y="0px" style="enable-background:new 0 0 512 512;" xml:space="preserve" viewBox="0 179.27 512 153.46">
<style type="text/css">
	.st0{fill:#1ED760;}
</style>
<g id="XMLID_1_">
	<path id="XMLID_2_" class="st0" d="M76.73,179.27C34.37,179.27,0,213.64,0,256s34.37,76.73,76.73,76.73s76.73-34.37,76.73-76.73   C153.6,213.64,119.23,179.27,76.73,179.27L76.73,179.27z M111.94,289.95c-1.4,2.24-4.35,2.95-6.59,1.54   c-18.1-11.08-40.68-13.47-67.47-7.43c-2.52,0.56-5.19-0.98-5.75-3.65c-0.56-2.52,0.98-5.19,3.65-5.75   c29.32-6.73,54.29-3.79,74.63,8.56C112.64,284.76,113.34,287.7,111.94,289.95z M121.34,269.05c-1.68,2.81-5.47,3.65-8.28,1.96   c-20.62-12.62-52.04-16.41-76.45-8.98c-3.23,0.98-6.45-0.84-7.43-3.93c-0.98-3.23,0.84-6.45,3.93-7.43   c27.91-8.42,62.56-4.35,86.27,10.24C122.18,262.59,123.16,266.24,121.34,269.05L121.34,269.05z M122.18,247.3   c-24.69-14.73-65.51-15.99-89.21-8.84c-3.79,1.12-7.86-0.98-8.98-4.77c-1.12-3.79,0.98-7.86,4.77-8.98   c27.07-8.28,72.24-6.59,100.72,10.24c3.37,1.96,4.49,6.45,2.52,9.82C130.03,248.14,125.55,249.27,122.18,247.3L122.18,247.3z    M208.87,250.11c-13.33-3.23-15.57-5.33-15.57-10.1c0-4.35,4.21-7.43,10.38-7.43c6.03,0,11.92,2.24,18.1,6.87   c0.14,0.14,0.42,0.14,0.7,0.14s0.42-0.14,0.56-0.42l6.45-9.12c0.28-0.42,0.14-0.84-0.14-1.12c-7.43-5.89-15.71-8.84-25.53-8.84   c-14.31,0-24.27,8.56-24.27,20.9c0,13.19,8.7,17.81,23.57,21.46c12.62,2.95,14.87,5.33,14.87,9.68c0,4.91-4.35,7.86-11.36,7.86   c-7.72,0-14.03-2.67-21.18-8.7c-0.14-0.14-0.42-0.28-0.7-0.28c-0.28,0-0.42,0.14-0.56,0.28l-7.29,8.7   c-0.28,0.42-0.28,0.84,0.14,1.26c8.28,7.29,18.38,11.22,29.18,11.22c15.43,0,25.39-8.42,25.39-21.46   C231.59,260.07,225,254.04,208.87,250.11L208.87,250.11z M266.52,237.06c-6.73,0-12.2,2.67-16.69,8v-6.03   c0-0.42-0.42-0.84-0.84-0.84h-11.92c-0.42,0-0.84,0.42-0.84,0.84v67.47c0,0.42,0.42,0.84,0.84,0.84h11.92   c0.42,0,0.84-0.42,0.84-0.84v-21.32c4.49,5.05,9.96,7.57,16.69,7.57c12.48,0,24.97-9.54,24.97-27.77   C291.49,246.6,279,237.06,266.52,237.06L266.52,237.06L266.52,237.06z M277.74,264.84c0,9.26-5.75,15.85-13.89,15.85   c-8.14,0-14.31-6.73-14.31-15.85c0-8.98,6.17-15.85,14.31-15.85C271.85,249.13,277.74,255.72,277.74,264.84L277.74,264.84z    M323.75,237.06c-15.99,0-28.48,12.34-28.48,28.05c0,15.57,12.48,27.77,28.34,27.77c15.99,0,28.62-12.34,28.62-27.91   C352.23,249.27,339.74,237.06,323.75,237.06L323.75,237.06z M323.75,280.83c-8.56,0-14.87-6.87-14.87-15.85   c0-9.12,6.17-15.71,14.73-15.71s15.01,6.87,15.01,15.85C338.62,274.24,332.31,280.83,323.75,280.83z M386.31,238.04h-13.05v-13.33   c0-0.42-0.42-0.84-0.84-0.84H360.5c-0.42,0-0.84,0.42-0.84,0.84v13.33h-5.75c-0.42,0-0.84,0.42-0.84,0.84v10.24   c0,0.42,0.42,0.84,0.84,0.84h5.75v26.37c0,10.66,5.33,16.13,15.85,16.13c4.21,0,7.72-0.84,11.08-2.81c0.28-0.14,0.42-0.42,0.42-0.7   v-9.68c0-0.28-0.14-0.56-0.42-0.7c-0.28-0.14-0.56-0.14-0.84,0c-2.24,1.12-4.49,1.68-7.01,1.68c-3.79,0-5.47-1.68-5.47-5.61v-24.55   h13.05c0.42,0,0.84-0.42,0.84-0.84v-10.24C387.3,238.47,386.88,238.19,386.31,238.04L386.31,238.04L386.31,238.04z M431.9,238.19   v-1.68c0-4.77,1.82-7.01,6.03-7.01c2.52,0,4.49,0.56,6.73,1.26c0.28,0.14,0.56,0,0.84-0.14c0.28-0.14,0.42-0.42,0.42-0.7v-9.96   c0-0.42-0.28-0.7-0.56-0.84c-2.38-0.7-5.33-1.4-9.82-1.4c-10.94,0-16.69,6.17-16.69,17.81v2.52h-5.75c-0.42,0-0.84,0.42-0.84,0.84   v10.24c0,0.42,0.42,0.84,0.84,0.84h5.75v40.68c0,0.42,0.42,0.84,0.84,0.84h11.92c0.42,0,0.84-0.42,0.84-0.84v-40.68h11.08   l16.97,40.68c-1.96,4.21-3.79,5.19-6.45,5.19c-2.1,0-4.35-0.56-6.59-1.82c-0.28-0.14-0.42-0.14-0.7,0   c-0.28,0.14-0.42,0.28-0.56,0.42l-4.07,8.84c-0.14,0.42,0,0.84,0.42,1.12c4.21,2.24,8,3.23,12.62,3.23   c8.7,0,13.61-4.07,17.81-15.01l20.62-53.16c0.14-0.28,0.14-0.56-0.14-0.84c-0.14-0.28-0.42-0.42-0.7-0.42h-12.34   c-0.42,0-0.7,0.28-0.84,0.56l-12.62,36.19l-13.89-36.19c-0.14-0.28-0.42-0.56-0.84-0.56L431.9,238.19L431.9,238.19L431.9,238.19z    M405.53,238.04h-11.92c-0.42,0-0.84,0.42-0.84,0.84v51.76c0,0.42,0.42,0.84,0.84,0.84h11.92c0.42,0,0.84-0.42,0.84-0.84v-51.76   C406.37,238.47,405.95,238.04,405.53,238.04L405.53,238.04z M399.64,214.48c-4.77,0-8.56,3.79-8.56,8.56   c0,4.77,3.79,8.56,8.56,8.56c4.77,0,8.56-3.79,8.56-8.56C408.06,218.41,404.27,214.48,399.64,214.48z M503.58,254.74   c-4.63,0-8.42-3.79-8.42-8.42s3.65-8.42,8.42-8.42c4.63,0,8.42,3.79,8.42,8.42C512,250.95,508.35,254.74,503.58,254.74z    M503.58,238.89c-4.35,0-7.57,3.37-7.57,7.57s3.23,7.57,7.43,7.57c4.35,0,7.57-3.37,7.57-7.57   C511.16,242.25,507.93,238.89,503.58,238.89z M505.55,247.16l2.38,3.37h-1.96l-2.1-3.09h-1.82v3.09h-1.68v-8.84h3.93   c2.1,0,3.37,0.98,3.37,2.81C507.51,246.04,506.67,246.88,505.55,247.16L505.55,247.16z M504.14,243.24h-2.1v2.81h2.1   c1.12,0,1.68-0.56,1.68-1.4C505.83,243.8,505.13,243.24,504.14,243.24z"/>
</g>
</svg>